<svg width="207" height="80" viewBox="0 0 207 80" fill="none" xmlns="http://www.w3.org/2000/svg">
<path d="M10.375 36.1562V28.25H21.8125C23.5417 28.25 24.9375 27.9688 26 27.4062C27.0833 26.8438 27.875 26.0729 28.375 25.0938C28.875 24.1146 29.125 22.9896 29.125 21.7188C29.125 20.4479 28.875 19.2604 28.375 18.1562C27.875 17.0312 27.0833 16.1354 26 15.4688C24.9375 14.7812 23.5417 14.4375 21.8125 14.4375H13.75V52H3.90625V6.5H21.8125C25.4167 6.5 28.5104 7.15625 31.0938 8.46875C33.6771 9.78125 35.6562 11.5833 37.0312 13.875C38.4062 16.1458 39.0938 18.7396 39.0938 21.6562C39.0938 24.6146 38.4062 27.1771 37.0312 29.3438C35.6562 31.5104 33.6771 33.1875 31.0938 34.375C28.5104 35.5625 25.4167 36.1562 21.8125 36.1562H10.375ZM62.4688 29.4688C62.4688 27.9479 62.0938 26.7396 61.3438 25.8438C60.5938 24.9479 59.3958 24.5 57.75 24.5C56.8125 24.5 56 24.6562 55.3125 24.9688C54.625 25.2812 54.1042 25.7292 53.75 26.3125C53.3958 26.875 53.2188 27.5729 53.2188 28.4062H43.7812C43.7812 26.4062 44.375 24.5938 45.5625 22.9688C46.75 21.3229 48.4271 20.0104 50.5938 19.0312C52.7604 18.0521 55.3125 17.5625 58.25 17.5625C60.875 17.5625 63.2188 18.0104 65.2812 18.9062C67.3438 19.7812 68.9688 21.1042 70.1562 22.875C71.3438 24.6458 71.9375 26.8646 71.9375 29.5312V43.6562C71.9375 45.6562 72.0521 47.2396 72.2812 48.4062C72.5312 49.5729 72.875 50.5938 73.3125 51.4688V52H63.8125C63.3542 51.0417 63.0104 49.8438 62.7812 48.4062C62.5729 46.9688 62.4688 45.5104 62.4688 44.0312V29.4688ZM63.75 36.75H58.9375C56.6458 36.75 54.9896 37.25 53.9688 38.25C52.9479 39.2292 52.4375 40.4167 52.4375 41.8125C52.4375 42.875 52.8125 43.75 53.5625 44.4375C54.3125 45.125 55.3229 45.4688 56.5938 45.4688C57.9062 45.4688 59.0312 45.2188 59.9688 44.7188C60.9271 44.1979 61.6562 43.5833 62.1562 42.875C62.6771 42.1458 62.9271 41.4792 62.9062 40.875L65.3438 44.9375C65.0104 45.7708 64.5625 46.6354 64 47.5312C63.4583 48.4271 62.7604 49.2604 61.9062 50.0312C61.0521 50.8021 60.0104 51.4271 58.7812 51.9062C57.5729 52.3854 56.1458 52.625 54.5 52.625C52.375 52.625 50.4375 52.1979 48.6875 51.3438C46.9375 50.4688 45.5521 49.2708 44.5312 47.75C43.5104 46.2083 43 44.4479 43 42.4688C43 38.9271 44.3125 36.1875 46.9375 34.25C49.5625 32.2917 53.4688 31.3125 58.6562 31.3125H63.6875L63.75 36.75ZM96.9688 18.1875H106.844L95.5312 52H89.5625L89.75 45.0312L96.9688 18.1875ZM92.2188 45.0625L92.375 52H86.4062L75.0625 18.1875H85L92.2188 45.0625ZM126.469 52.625C122.906 52.625 119.854 51.8854 117.312 50.4062C114.792 48.9271 112.854 46.9479 111.5 44.4688C110.167 41.9896 109.5 39.25 109.5 36.25V35.0312C109.5 31.6562 110.135 28.6562 111.406 26.0312C112.698 23.3854 114.531 21.3125 116.906 19.8125C119.281 18.3125 122.115 17.5625 125.406 17.5625C128.677 17.5625 131.427 18.25 133.656 19.625C135.885 21 137.573 22.9375 138.719 25.4375C139.865 27.9167 140.438 30.8333 140.438 34.1875V38.1875H113.469V31.8438H131.156V31.0938C131.156 29.9271 130.948 28.8958 130.531 28C130.115 27.1042 129.479 26.4062 128.625 25.9062C127.792 25.4062 126.698 25.1562 125.344 25.1562C123.802 25.1562 122.562 25.5938 121.625 26.4688C120.688 27.3438 120 28.5208 119.562 30C119.146 31.4792 118.938 33.1562 118.938 35.0312V36.25C118.938 37.9792 119.26 39.5 119.906 40.8125C120.552 42.125 121.479 43.1562 122.688 43.9062C123.896 44.6354 125.354 45 127.062 45C128.667 45 130.167 44.7083 131.562 44.125C132.958 43.5208 134.146 42.5833 135.125 41.3125L139.688 46.5312C138.625 48.0521 136.979 49.4479 134.75 50.7188C132.542 51.9896 129.781 52.625 126.469 52.625Z" fill="#005099"/>
<path d="M12.5781 71.8428H3.51367V70.7661H12.5781V71.8428ZM3.81104 79H2.5498V64.0703H3.81104V79ZM13.6035 79H12.3423V64.0703H13.6035V79ZM28.7473 64.0703C29.7795 64.0703 30.675 64.2378 31.4338 64.5728C32.1926 64.9077 32.7771 65.4033 33.1872 66.0596C33.6042 66.709 33.8127 67.5088 33.8127 68.459C33.8127 69.1631 33.6658 69.8022 33.3718 70.3765C33.0779 70.9507 32.6677 71.4326 32.1413 71.8223C31.6218 72.2051 31.0203 72.4683 30.3367 72.6118L29.8957 72.7759H24.7175L24.697 71.7095H29.0242C29.8103 71.7095 30.4631 71.5591 30.9827 71.2583C31.5022 70.9507 31.8918 70.5508 32.1516 70.0586C32.4182 69.5596 32.5515 69.0264 32.5515 68.459C32.5515 67.4404 32.2234 66.6338 31.5671 66.0391C30.9177 65.4443 29.9778 65.147 28.7473 65.147H25.1584V79H23.8972V64.0703H28.7473ZM29.2497 72.3247L30.6033 72.3145L34.4587 78.8667V79H33.1052L29.2497 72.3247ZM66.5407 79H65.2693L56.6867 66.2236V79H55.4255V64.0703H56.6867L65.2898 76.8467V64.0703H66.5407V79ZM80.8642 79.2051C79.9004 79.2051 79.0424 78.9727 78.2905 78.5078C77.5454 78.0361 76.9575 77.3936 76.5268 76.5801C76.103 75.7598 75.8911 74.8198 75.8911 73.7603V73.3193C75.8911 72.1777 76.1098 71.1865 76.5473 70.3457C76.9917 69.5049 77.5727 68.8555 78.2905 68.3975C79.0151 67.9326 79.7978 67.7002 80.6386 67.7002C81.582 67.7002 82.3818 67.9189 83.038 68.3564C83.6943 68.7871 84.1899 69.3853 84.5249 70.1509C84.8667 70.9165 85.0376 71.7915 85.0376 72.7759V73.5244H76.6396V72.4888H83.8071V72.3452C83.7934 71.7231 83.667 71.1387 83.4277 70.5918C83.1953 70.0449 82.8466 69.6006 82.3818 69.2588C81.917 68.9102 81.3359 68.7358 80.6386 68.7358C79.9482 68.7358 79.3364 68.9307 78.8032 69.3203C78.27 69.71 77.8564 70.25 77.5625 70.9404C77.2685 71.624 77.1215 72.417 77.1215 73.3193V73.7603C77.1215 74.5806 77.2788 75.3223 77.5932 75.9854C77.9145 76.6484 78.3623 77.1782 78.9365 77.5747C79.5107 77.9712 80.1704 78.1694 80.9155 78.1694C81.5717 78.1694 82.1528 78.0498 82.6587 77.8105C83.1645 77.5645 83.6191 77.1782 84.0224 76.6519L84.8017 77.2363C84.4394 77.7764 83.9404 78.2412 83.3046 78.6309C82.6757 79.0137 81.8623 79.2051 80.8642 79.2051ZM98.1613 68.9102H92.5935V67.9053H98.1613V68.9102ZM95.8542 65.0547V76.3032C95.8542 76.8159 95.9226 77.2056 96.0593 77.4722C96.196 77.7319 96.3737 77.9062 96.5925 77.9951C96.8181 78.084 97.0573 78.1284 97.3103 78.1284C97.4948 78.1284 97.6691 78.1182 97.8332 78.0977C98.0041 78.0703 98.1579 78.0464 98.2946 78.0259L98.3459 79.041C98.1955 79.0889 98.0007 79.1265 97.7614 79.1538C97.5222 79.188 97.2829 79.2051 97.0437 79.2051C96.572 79.2051 96.155 79.1196 95.7927 78.9487C95.4304 78.771 95.1433 78.4702 94.9314 78.0464C94.7263 77.6157 94.6237 77.0312 94.6237 76.293V65.0547H95.8542ZM112.977 67.9053H113.849L113.336 70.2021L110.537 79H109.675L110.311 76.3955L112.977 67.9053ZM109.88 76.4468L110.383 79H109.491L106.271 67.9053H107.542L109.88 76.4468ZM119.468 67.9053H120.729L117.509 79H116.627L117.181 76.416L119.468 67.9053ZM116.668 76.3237L117.325 79H116.463L113.602 70.1919L113.121 67.9053H114.033L116.668 76.3237ZM128.921 73.2886C128.921 72.2085 129.126 71.248 129.536 70.4072C129.946 69.5664 130.52 68.9067 131.258 68.4282C131.997 67.9429 132.865 67.7002 133.863 67.7002C134.868 67.7002 135.743 67.9429 136.488 68.4282C137.233 68.9067 137.807 69.5664 138.211 70.4072C138.621 71.248 138.826 72.2085 138.826 73.2886V73.627C138.826 74.7002 138.621 75.6572 138.211 76.498C137.807 77.3389 137.233 78.002 136.488 78.4873C135.75 78.9658 134.882 79.2051 133.883 79.2051C132.879 79.2051 132.004 78.9658 131.258 78.4873C130.52 78.002 129.946 77.3389 129.536 76.498C129.126 75.6572 128.921 74.7002 128.921 73.627V73.2886ZM130.151 73.627C130.151 74.4336 130.295 75.1821 130.582 75.8726C130.869 76.563 131.289 77.1201 131.843 77.5439C132.397 77.9609 133.077 78.1694 133.883 78.1694C134.683 78.1694 135.357 77.9609 135.903 77.5439C136.457 77.1201 136.878 76.563 137.165 75.8726C137.452 75.1821 137.595 74.4336 137.595 73.627V73.2886C137.595 72.4888 137.452 71.7437 137.165 71.0532C136.878 70.3628 136.457 69.8057 135.903 69.3818C135.35 68.9512 134.67 68.7358 133.863 68.7358C133.063 68.7358 132.386 68.9512 131.833 69.3818C131.279 69.8057 130.859 70.3628 130.571 71.0532C130.291 71.7437 130.151 72.4888 130.151 73.2886V73.627ZM149.099 79H147.869V67.9053H149.068L149.099 69.7407V79ZM152.996 68.9409C152.859 68.9204 152.726 68.9033 152.596 68.8896C152.466 68.876 152.326 68.8691 152.175 68.8691C151.471 68.8691 150.88 69.04 150.401 69.3818C149.923 69.7236 149.557 70.1816 149.304 70.7559C149.058 71.3301 148.925 71.9727 148.904 72.6836L148.443 72.8477C148.443 71.8838 148.576 71.0156 148.843 70.2432C149.116 69.4639 149.53 68.8452 150.083 68.3872C150.644 67.9292 151.355 67.7002 152.216 67.7002C152.373 67.7002 152.527 67.7139 152.678 67.7412C152.835 67.7617 152.951 67.7891 153.026 67.8232L152.996 68.9409ZM162.684 79H161.464V63.25H162.684V79ZM164.468 73.0425L162.254 75.1753L162.069 73.9858L163.853 72.0786L168.088 67.9053H169.647L164.468 73.0425ZM163.945 73.2271L164.622 72.1812L170.057 79H168.58L163.945 73.2271Z" fill="#005099"/>
</svg>
